<svg width="26" height="25" viewBox="0 0 26 25" fill="none" xmlns="http://www.w3.org/2000/svg">
<g id="Developer-Center">
<g id="Group-28">
<g id="Group-29">
<g id="Group-10">
<g id="Group-13">
<g id="Group-46">
<g id="Group-45">
<path id="Oval" d="M12.8333 25C19.7368 25 25.3333 19.4036 25.3333 12.5C25.3333 5.59644 19.7368 0 12.8333 0C5.92969 0 0.333252 5.59644 0.333252 12.5C0.333252 19.4036 5.92969 25 12.8333 25Z" fill="#627EEA"/>
<path id="Path" d="M13.2229 3.12331V10.0533L19.0799 12.6709L13.2229 3.12331Z" fill="white" fill-opacity="0.602"/>
<path id="Path_1_" d="M13.2227 3.12331L7.36572 12.6709L13.2227 10.0533V3.12331Z" fill="white"/>
<path id="Path_2_" d="M13.2229 17.161V21.8698L19.0833 13.7609L13.2229 17.161Z" fill="white" fill-opacity="0.602"/>
<path id="Path_3_" d="M13.2227 21.8698V17.161L7.36572 13.7609L13.2227 21.8698Z" fill="white"/>
<path id="Path_4_" d="M13.2229 16.071L19.0799 12.6709L13.2229 10.0533V16.071Z" fill="white" fill-opacity="0.2"/>
</g>
<path id="Path_5_" d="M7.36572 12.6709L13.2227 16.071V10.0533L7.36572 12.6709Z" fill="white" fill-opacity="0.602"/>
</g>
</g>
</g>
</g>
</g>
</g>
</svg>
