<svg width="25" height="24" viewBox="0 0 25 24" fill="none" xmlns="http://www.w3.org/2000/svg">
<g id="hdr_strong" clip-path="url(#clip0_257_1820)">
<path id="Vector" d="M7.5 18C10.81 18 13.5 15.31 13.5 12C13.5 8.69 10.81 6 7.5 6C4.19 6 1.5 8.69 1.5 12C1.5 15.31 4.19 18 7.5 18ZM19.5 16C21.71 16 23.5 14.21 23.5 12C23.5 9.79 21.71 8 19.5 8C17.29 8 15.5 9.79 15.5 12C15.5 14.21 17.29 16 19.5 16ZM19.5 10C20.6 10 21.5 10.9 21.5 12C21.5 13.1 20.6 14 19.5 14C18.4 14 17.5 13.1 17.5 12C17.5 10.9 18.4 10 19.5 10Z" fill="black"/>
</g>
<defs>
<clipPath id="clip0_257_1820">
<rect width="24" height="24" fill="white" transform="translate(24.5 24) rotate(-180)"/>
</clipPath>
</defs>
</svg>
